G04 #@! TF.GenerationSoftware,KiCad,Pcbnew,(5.1.2-1)-1*
G04 #@! TF.CreationDate,2022-02-01T20:28:38+01:00*
G04 #@! TF.ProjectId,AtomIOExt,41746f6d-494f-4457-9874-2e6b69636164,1.0*
G04 #@! TF.SameCoordinates,Original*
G04 #@! TF.FileFunction,Soldermask,Top*
G04 #@! TF.FilePolarity,Negative*
%FSLAX46Y46*%
G04 Gerber Fmt 4.6, Leading zero omitted, Abs format (unit mm)*
G04 Created by KiCad (PCBNEW (5.1.2-1)-1) date 2022-02-01 20:28:38*
%MOMM*%
%LPD*%
G04 APERTURE LIST*
%ADD10C,4.300000*%
%ADD11O,1.700000X1.700000*%
%ADD12R,1.700000X1.700000*%
%ADD13O,1.727200X1.727200*%
%ADD14R,1.727200X1.727200*%
%ADD15O,1.600000X1.600000*%
%ADD16R,1.600000X1.600000*%
%ADD17O,2.400000X1.600000*%
%ADD18R,2.400000X1.600000*%
%ADD19C,2.800000*%
%ADD20C,1.700000*%
%ADD21C,0.100000*%
%ADD22C,3.500000*%
%ADD23C,3.000000*%
%ADD24R,3.500000X3.500000*%
%ADD25C,1.600000*%
G04 APERTURE END LIST*
D10*
X122150000Y-152350000D03*
X122800000Y-61700000D03*
D11*
X81800000Y-68060000D03*
X81800000Y-70600000D03*
X81800000Y-73140000D03*
X81800000Y-75680000D03*
X81800000Y-78220000D03*
X81800000Y-80760000D03*
X81800000Y-83300000D03*
X81800000Y-85840000D03*
X81800000Y-88380000D03*
X81800000Y-90920000D03*
X81800000Y-93460000D03*
X81800000Y-96000000D03*
X81800000Y-98540000D03*
X81800000Y-101080000D03*
X81800000Y-103620000D03*
X81800000Y-106160000D03*
X81800000Y-108700000D03*
X81800000Y-111240000D03*
X81800000Y-113780000D03*
X81800000Y-116320000D03*
X81800000Y-118860000D03*
X81800000Y-121400000D03*
X81800000Y-123940000D03*
X81800000Y-126480000D03*
X81800000Y-129020000D03*
X81800000Y-131560000D03*
X81800000Y-134100000D03*
X81800000Y-136640000D03*
X81800000Y-139180000D03*
X81800000Y-141720000D03*
X81800000Y-144260000D03*
D12*
X81800000Y-146800000D03*
D13*
X121460000Y-102510000D03*
X124000000Y-102510000D03*
X121460000Y-105050000D03*
X124000000Y-105050000D03*
X121460000Y-107590000D03*
X124000000Y-107590000D03*
X121460000Y-110130000D03*
X124000000Y-110130000D03*
X121460000Y-112670000D03*
X124000000Y-112670000D03*
X121460000Y-115210000D03*
X124000000Y-115210000D03*
X121460000Y-117750000D03*
X124000000Y-117750000D03*
X121460000Y-120290000D03*
X124000000Y-120290000D03*
X121460000Y-122830000D03*
X124000000Y-122830000D03*
X121460000Y-125370000D03*
X124000000Y-125370000D03*
X121460000Y-127910000D03*
X124000000Y-127910000D03*
X121460000Y-130450000D03*
X124000000Y-130450000D03*
X121460000Y-132990000D03*
X124000000Y-132990000D03*
X121460000Y-135530000D03*
X124000000Y-135530000D03*
X121460000Y-138070000D03*
X124000000Y-138070000D03*
X121460000Y-140610000D03*
X124000000Y-140610000D03*
X121460000Y-143150000D03*
D14*
X124000000Y-143150000D03*
D13*
X121460000Y-67590000D03*
X124000000Y-67590000D03*
X121460000Y-70130000D03*
X124000000Y-70130000D03*
X121460000Y-72670000D03*
X124000000Y-72670000D03*
X121460000Y-75210000D03*
X124000000Y-75210000D03*
X121460000Y-77750000D03*
X124000000Y-77750000D03*
X121460000Y-80290000D03*
X124000000Y-80290000D03*
X121460000Y-82830000D03*
X124000000Y-82830000D03*
X121460000Y-85370000D03*
X124000000Y-85370000D03*
X121460000Y-87910000D03*
X124000000Y-87910000D03*
X121460000Y-90450000D03*
D14*
X124000000Y-90450000D03*
D15*
X94560000Y-123950000D03*
X109800000Y-90930000D03*
X94560000Y-121410000D03*
X109800000Y-93470000D03*
X94560000Y-118870000D03*
X109800000Y-96010000D03*
X94560000Y-116330000D03*
X109800000Y-98550000D03*
X94560000Y-113790000D03*
X109800000Y-101090000D03*
X94560000Y-111250000D03*
X109800000Y-103630000D03*
X94560000Y-108710000D03*
X109800000Y-106170000D03*
X94560000Y-106170000D03*
X109800000Y-108710000D03*
X94560000Y-103630000D03*
X109800000Y-111250000D03*
X94560000Y-101090000D03*
X109800000Y-113790000D03*
X94560000Y-98550000D03*
X109800000Y-116330000D03*
X94560000Y-96010000D03*
X109800000Y-118870000D03*
X94560000Y-93470000D03*
X109800000Y-121410000D03*
X94560000Y-90930000D03*
D16*
X109800000Y-123950000D03*
D17*
X100730000Y-80250000D03*
X108350000Y-62470000D03*
X100730000Y-77710000D03*
X108350000Y-65010000D03*
X100730000Y-75170000D03*
X108350000Y-67550000D03*
X100730000Y-72630000D03*
X108350000Y-70090000D03*
X100730000Y-70090000D03*
X108350000Y-72630000D03*
X100730000Y-67550000D03*
X108350000Y-75170000D03*
X100730000Y-65010000D03*
X108350000Y-77710000D03*
X100730000Y-62470000D03*
D18*
X108350000Y-80250000D03*
D17*
X87230000Y-80250000D03*
X94850000Y-62470000D03*
X87230000Y-77710000D03*
X94850000Y-65010000D03*
X87230000Y-75170000D03*
X94850000Y-67550000D03*
X87230000Y-72630000D03*
X94850000Y-70090000D03*
X87230000Y-70090000D03*
X94850000Y-72630000D03*
X87230000Y-67550000D03*
X94850000Y-75170000D03*
X87230000Y-65010000D03*
X94850000Y-77710000D03*
X87230000Y-62470000D03*
D18*
X94850000Y-80250000D03*
D19*
X74160000Y-62980000D03*
X74160000Y-151880000D03*
D20*
X79240000Y-68060000D03*
X76700000Y-68060000D03*
X79240000Y-70600000D03*
X76700000Y-70600000D03*
X79240000Y-73140000D03*
X76700000Y-73140000D03*
X79240000Y-75680000D03*
X76700000Y-75680000D03*
X79240000Y-78220000D03*
X76700000Y-78220000D03*
X79240000Y-80760000D03*
X76700000Y-80760000D03*
X79240000Y-83300000D03*
X76700000Y-83300000D03*
X79240000Y-85840000D03*
X76700000Y-85840000D03*
X79240000Y-88380000D03*
X76700000Y-88380000D03*
X79240000Y-90920000D03*
X76700000Y-90920000D03*
X79240000Y-93460000D03*
X76700000Y-93460000D03*
X79240000Y-96000000D03*
X76700000Y-96000000D03*
X79240000Y-98540000D03*
X76700000Y-98540000D03*
X79240000Y-101080000D03*
X76700000Y-101080000D03*
X79240000Y-103620000D03*
X76700000Y-103620000D03*
X79240000Y-106160000D03*
X76700000Y-106160000D03*
X79240000Y-108700000D03*
X76700000Y-108700000D03*
X79240000Y-111240000D03*
X76700000Y-111240000D03*
X79240000Y-113780000D03*
X76700000Y-113780000D03*
X79240000Y-116320000D03*
X76700000Y-116320000D03*
X79240000Y-118860000D03*
X76700000Y-118860000D03*
X79240000Y-121400000D03*
X76700000Y-121400000D03*
X79240000Y-123940000D03*
X76700000Y-123940000D03*
X79240000Y-126480000D03*
X76700000Y-126480000D03*
X79240000Y-129020000D03*
X76700000Y-129020000D03*
X79240000Y-131560000D03*
X76700000Y-131560000D03*
X79240000Y-134100000D03*
X76700000Y-134100000D03*
X79240000Y-136640000D03*
X76700000Y-136640000D03*
X79240000Y-139180000D03*
X76700000Y-139180000D03*
X79240000Y-141720000D03*
X76700000Y-141720000D03*
X79240000Y-144260000D03*
X76700000Y-144260000D03*
X79240000Y-146800000D03*
D12*
X76700000Y-146800000D03*
D21*
G36*
X111560765Y-148004213D02*
G01*
X111645704Y-148016813D01*
X111728999Y-148037677D01*
X111809848Y-148066605D01*
X111887472Y-148103319D01*
X111961124Y-148147464D01*
X112030094Y-148198616D01*
X112093718Y-148256282D01*
X112151384Y-148319906D01*
X112202536Y-148388876D01*
X112246681Y-148462528D01*
X112283395Y-148540152D01*
X112312323Y-148621001D01*
X112333187Y-148704296D01*
X112345787Y-148789235D01*
X112350000Y-148875000D01*
X112350000Y-150625000D01*
X112345787Y-150710765D01*
X112333187Y-150795704D01*
X112312323Y-150878999D01*
X112283395Y-150959848D01*
X112246681Y-151037472D01*
X112202536Y-151111124D01*
X112151384Y-151180094D01*
X112093718Y-151243718D01*
X112030094Y-151301384D01*
X111961124Y-151352536D01*
X111887472Y-151396681D01*
X111809848Y-151433395D01*
X111728999Y-151462323D01*
X111645704Y-151483187D01*
X111560765Y-151495787D01*
X111475000Y-151500000D01*
X109725000Y-151500000D01*
X109639235Y-151495787D01*
X109554296Y-151483187D01*
X109471001Y-151462323D01*
X109390152Y-151433395D01*
X109312528Y-151396681D01*
X109238876Y-151352536D01*
X109169906Y-151301384D01*
X109106282Y-151243718D01*
X109048616Y-151180094D01*
X108997464Y-151111124D01*
X108953319Y-151037472D01*
X108916605Y-150959848D01*
X108887677Y-150878999D01*
X108866813Y-150795704D01*
X108854213Y-150710765D01*
X108850000Y-150625000D01*
X108850000Y-148875000D01*
X108854213Y-148789235D01*
X108866813Y-148704296D01*
X108887677Y-148621001D01*
X108916605Y-148540152D01*
X108953319Y-148462528D01*
X108997464Y-148388876D01*
X109048616Y-148319906D01*
X109106282Y-148256282D01*
X109169906Y-148198616D01*
X109238876Y-148147464D01*
X109312528Y-148103319D01*
X109390152Y-148066605D01*
X109471001Y-148037677D01*
X109554296Y-148016813D01*
X109639235Y-148004213D01*
X109725000Y-148000000D01*
X111475000Y-148000000D01*
X111560765Y-148004213D01*
X111560765Y-148004213D01*
G37*
D22*
X110600000Y-149750000D03*
D21*
G36*
X106973513Y-151253611D02*
G01*
X107046318Y-151264411D01*
X107117714Y-151282295D01*
X107187013Y-151307090D01*
X107253548Y-151338559D01*
X107316678Y-151376398D01*
X107375795Y-151420242D01*
X107430330Y-151469670D01*
X107479758Y-151524205D01*
X107523602Y-151583322D01*
X107561441Y-151646452D01*
X107592910Y-151712987D01*
X107617705Y-151782286D01*
X107635589Y-151853682D01*
X107646389Y-151926487D01*
X107650000Y-152000000D01*
X107650000Y-153500000D01*
X107646389Y-153573513D01*
X107635589Y-153646318D01*
X107617705Y-153717714D01*
X107592910Y-153787013D01*
X107561441Y-153853548D01*
X107523602Y-153916678D01*
X107479758Y-153975795D01*
X107430330Y-154030330D01*
X107375795Y-154079758D01*
X107316678Y-154123602D01*
X107253548Y-154161441D01*
X107187013Y-154192910D01*
X107117714Y-154217705D01*
X107046318Y-154235589D01*
X106973513Y-154246389D01*
X106900000Y-154250000D01*
X104900000Y-154250000D01*
X104826487Y-154246389D01*
X104753682Y-154235589D01*
X104682286Y-154217705D01*
X104612987Y-154192910D01*
X104546452Y-154161441D01*
X104483322Y-154123602D01*
X104424205Y-154079758D01*
X104369670Y-154030330D01*
X104320242Y-153975795D01*
X104276398Y-153916678D01*
X104238559Y-153853548D01*
X104207090Y-153787013D01*
X104182295Y-153717714D01*
X104164411Y-153646318D01*
X104153611Y-153573513D01*
X104150000Y-153500000D01*
X104150000Y-152000000D01*
X104153611Y-151926487D01*
X104164411Y-151853682D01*
X104182295Y-151782286D01*
X104207090Y-151712987D01*
X104238559Y-151646452D01*
X104276398Y-151583322D01*
X104320242Y-151524205D01*
X104369670Y-151469670D01*
X104424205Y-151420242D01*
X104483322Y-151376398D01*
X104546452Y-151338559D01*
X104612987Y-151307090D01*
X104682286Y-151282295D01*
X104753682Y-151264411D01*
X104826487Y-151253611D01*
X104900000Y-151250000D01*
X106900000Y-151250000D01*
X106973513Y-151253611D01*
X106973513Y-151253611D01*
G37*
D23*
X105900000Y-152750000D03*
D24*
X105900000Y-146750000D03*
D21*
G36*
X98460765Y-148004213D02*
G01*
X98545704Y-148016813D01*
X98628999Y-148037677D01*
X98709848Y-148066605D01*
X98787472Y-148103319D01*
X98861124Y-148147464D01*
X98930094Y-148198616D01*
X98993718Y-148256282D01*
X99051384Y-148319906D01*
X99102536Y-148388876D01*
X99146681Y-148462528D01*
X99183395Y-148540152D01*
X99212323Y-148621001D01*
X99233187Y-148704296D01*
X99245787Y-148789235D01*
X99250000Y-148875000D01*
X99250000Y-150625000D01*
X99245787Y-150710765D01*
X99233187Y-150795704D01*
X99212323Y-150878999D01*
X99183395Y-150959848D01*
X99146681Y-151037472D01*
X99102536Y-151111124D01*
X99051384Y-151180094D01*
X98993718Y-151243718D01*
X98930094Y-151301384D01*
X98861124Y-151352536D01*
X98787472Y-151396681D01*
X98709848Y-151433395D01*
X98628999Y-151462323D01*
X98545704Y-151483187D01*
X98460765Y-151495787D01*
X98375000Y-151500000D01*
X96625000Y-151500000D01*
X96539235Y-151495787D01*
X96454296Y-151483187D01*
X96371001Y-151462323D01*
X96290152Y-151433395D01*
X96212528Y-151396681D01*
X96138876Y-151352536D01*
X96069906Y-151301384D01*
X96006282Y-151243718D01*
X95948616Y-151180094D01*
X95897464Y-151111124D01*
X95853319Y-151037472D01*
X95816605Y-150959848D01*
X95787677Y-150878999D01*
X95766813Y-150795704D01*
X95754213Y-150710765D01*
X95750000Y-150625000D01*
X95750000Y-148875000D01*
X95754213Y-148789235D01*
X95766813Y-148704296D01*
X95787677Y-148621001D01*
X95816605Y-148540152D01*
X95853319Y-148462528D01*
X95897464Y-148388876D01*
X95948616Y-148319906D01*
X96006282Y-148256282D01*
X96069906Y-148198616D01*
X96138876Y-148147464D01*
X96212528Y-148103319D01*
X96290152Y-148066605D01*
X96371001Y-148037677D01*
X96454296Y-148016813D01*
X96539235Y-148004213D01*
X96625000Y-148000000D01*
X98375000Y-148000000D01*
X98460765Y-148004213D01*
X98460765Y-148004213D01*
G37*
D22*
X97500000Y-149750000D03*
D21*
G36*
X93873513Y-151253611D02*
G01*
X93946318Y-151264411D01*
X94017714Y-151282295D01*
X94087013Y-151307090D01*
X94153548Y-151338559D01*
X94216678Y-151376398D01*
X94275795Y-151420242D01*
X94330330Y-151469670D01*
X94379758Y-151524205D01*
X94423602Y-151583322D01*
X94461441Y-151646452D01*
X94492910Y-151712987D01*
X94517705Y-151782286D01*
X94535589Y-151853682D01*
X94546389Y-151926487D01*
X94550000Y-152000000D01*
X94550000Y-153500000D01*
X94546389Y-153573513D01*
X94535589Y-153646318D01*
X94517705Y-153717714D01*
X94492910Y-153787013D01*
X94461441Y-153853548D01*
X94423602Y-153916678D01*
X94379758Y-153975795D01*
X94330330Y-154030330D01*
X94275795Y-154079758D01*
X94216678Y-154123602D01*
X94153548Y-154161441D01*
X94087013Y-154192910D01*
X94017714Y-154217705D01*
X93946318Y-154235589D01*
X93873513Y-154246389D01*
X93800000Y-154250000D01*
X91800000Y-154250000D01*
X91726487Y-154246389D01*
X91653682Y-154235589D01*
X91582286Y-154217705D01*
X91512987Y-154192910D01*
X91446452Y-154161441D01*
X91383322Y-154123602D01*
X91324205Y-154079758D01*
X91269670Y-154030330D01*
X91220242Y-153975795D01*
X91176398Y-153916678D01*
X91138559Y-153853548D01*
X91107090Y-153787013D01*
X91082295Y-153717714D01*
X91064411Y-153646318D01*
X91053611Y-153573513D01*
X91050000Y-153500000D01*
X91050000Y-152000000D01*
X91053611Y-151926487D01*
X91064411Y-151853682D01*
X91082295Y-151782286D01*
X91107090Y-151712987D01*
X91138559Y-151646452D01*
X91176398Y-151583322D01*
X91220242Y-151524205D01*
X91269670Y-151469670D01*
X91324205Y-151420242D01*
X91383322Y-151376398D01*
X91446452Y-151338559D01*
X91512987Y-151307090D01*
X91582286Y-151282295D01*
X91653682Y-151264411D01*
X91726487Y-151253611D01*
X91800000Y-151250000D01*
X93800000Y-151250000D01*
X93873513Y-151253611D01*
X93873513Y-151253611D01*
G37*
D23*
X92800000Y-152750000D03*
D24*
X92800000Y-146750000D03*
D11*
X89550000Y-136580000D03*
X89550000Y-134040000D03*
D12*
X89550000Y-131500000D03*
D25*
X99550000Y-131500000D03*
X94550000Y-131500000D03*
X107100000Y-85400000D03*
X102100000Y-85400000D03*
X93600000Y-85350000D03*
X88600000Y-85350000D03*
M02*
