M48
; DRILL file {KiCad (5.1.2-1)-1} date Tuesday, 01 February 2022 at 20:28:42
; FORMAT={-:-/ absolute / metric / decimal}
; #@! TF.CreationDate,2022-02-01T20:28:42+01:00
; #@! TF.GenerationSoftware,Kicad,Pcbnew,(5.1.2-1)-1
; #@! TF.FileFunction,Plated,1,4,PTH
FMAT,2
METRIC
T1C0.400
T2C0.800
T3C1.000
T4C1.016
%
G90
G05
T1
X76.65Y-58.5
X83.3Y-77.05
X83.3Y-82.725
X83.45Y-140.6
X83.7Y-116.25
X83.7Y-132.85
X83.85Y-90.95
X83.85Y-97.35
X84.55Y-93.4
X84.55Y-99.9
X85.0Y-137.8
X85.05Y-108.75
X85.5Y-103.65
X86.45Y-96.0
X86.45Y-102.35
X86.45Y-118.85
X86.45Y-134.05
X87.4Y-98.5
X87.4Y-104.9
X87.4Y-117.65
X88.45Y-101.1
X88.45Y-107.45
X89.75Y-74.0
X89.75Y-79.15
X89.75Y-106.2
X91.0Y-143.8
X91.65Y-87.05
X91.75Y-77.7
X92.45Y-143.0
X94.85Y-83.4
X96.4Y-82.1
X96.45Y-113.75
X97.15Y-78.9
X97.15Y-82.725
X98.15Y-93.45
X98.15Y-97.15
X99.1Y-88.7
X99.1Y-118.275
X99.75Y-87.9
X99.8Y-120.675
X100.55Y-86.95
X100.55Y-121.975
X100.65Y-82.85
X101.4Y-126.45
X102.25Y-129.1
X102.95Y-132.35
X103.2Y-79.525
X103.5Y-90.9
X103.5Y-94.6
X104.3Y-77.075
X104.95Y-67.6
X104.95Y-82.1
X105.7Y-80.3
X106.0Y-116.35
X107.25Y-89.75
X107.675Y-109.875
X108.15Y-92.1
X112.25Y-102.5
X112.25Y-118.9
X112.25Y-130.25
X113.15Y-100.85
X113.15Y-116.3
X113.15Y-127.7
X114.4Y-113.8
X114.4Y-125.25
X114.45Y-104.3
X115.5Y-111.25
X115.5Y-122.6
X115.55Y-105.1
X116.7Y-106.2
X116.7Y-108.8
X116.7Y-115.0
X117.9Y-107.6
X117.9Y-120.05
X118.55Y-99.1
X118.6Y-101.65
X119.25Y-114.0
X119.35Y-103.55
X119.35Y-110.1
X119.35Y-112.6
X119.5Y-135.35
X119.9Y-113.25
X124.9Y-96.0
X125.85Y-68.8
X125.85Y-129.2
X126.55Y-66.4
X126.55Y-131.7
X127.4Y-58.4
X127.4Y-134.25
X128.3Y-76.45
X128.3Y-136.8
X129.15Y-71.5
X129.15Y-141.85
T2
X87.23Y-62.47
X87.23Y-65.01
X87.23Y-67.55
X87.23Y-70.09
X87.23Y-72.63
X87.23Y-75.17
X87.23Y-77.71
X87.23Y-80.25
X94.85Y-62.47
X94.85Y-65.01
X94.85Y-67.55
X94.85Y-70.09
X94.85Y-72.63
X94.85Y-75.17
X94.85Y-77.71
X94.85Y-80.25
X94.55Y-131.5
X99.55Y-131.5
X94.56Y-90.93
X94.56Y-93.47
X94.56Y-96.01
X94.56Y-98.55
X94.56Y-101.09
X94.56Y-103.63
X94.56Y-106.17
X94.56Y-108.71
X94.56Y-111.25
X94.56Y-113.79
X94.56Y-116.33
X94.56Y-118.87
X94.56Y-121.41
X94.56Y-123.95
X109.8Y-90.93
X109.8Y-93.47
X109.8Y-96.01
X109.8Y-98.55
X109.8Y-101.09
X109.8Y-103.63
X109.8Y-106.17
X109.8Y-108.71
X109.8Y-111.25
X109.8Y-113.79
X109.8Y-116.33
X109.8Y-118.87
X109.8Y-121.41
X109.8Y-123.95
X100.73Y-62.47
X100.73Y-65.01
X100.73Y-67.55
X100.73Y-70.09
X100.73Y-72.63
X100.73Y-75.17
X100.73Y-77.71
X100.73Y-80.25
X108.35Y-62.47
X108.35Y-65.01
X108.35Y-67.55
X108.35Y-70.09
X108.35Y-72.63
X108.35Y-75.17
X108.35Y-77.71
X108.35Y-80.25
X88.6Y-85.35
X93.6Y-85.35
X102.1Y-85.4
X107.1Y-85.4
T3
X81.8Y-68.06
X81.8Y-70.6
X81.8Y-73.14
X81.8Y-75.68
X81.8Y-78.22
X81.8Y-80.76
X81.8Y-83.3
X81.8Y-85.84
X81.8Y-88.38
X81.8Y-90.92
X81.8Y-93.46
X81.8Y-96.0
X81.8Y-98.54
X81.8Y-101.08
X81.8Y-103.62
X81.8Y-106.16
X81.8Y-108.7
X81.8Y-111.24
X81.8Y-113.78
X81.8Y-116.32
X81.8Y-118.86
X81.8Y-121.4
X81.8Y-123.94
X81.8Y-126.48
X81.8Y-129.02
X81.8Y-131.56
X81.8Y-134.1
X81.8Y-136.64
X81.8Y-139.18
X81.8Y-141.72
X81.8Y-144.26
X81.8Y-146.8
X89.55Y-131.5
X89.55Y-134.04
X89.55Y-136.58
X76.7Y-68.06
X76.7Y-70.6
X76.7Y-73.14
X76.7Y-75.68
X76.7Y-78.22
X76.7Y-80.76
X76.7Y-83.3
X76.7Y-85.84
X76.7Y-88.38
X76.7Y-90.92
X76.7Y-93.46
X76.7Y-96.0
X76.7Y-98.54
X76.7Y-101.08
X76.7Y-103.62
X76.7Y-106.16
X76.7Y-108.7
X76.7Y-111.24
X76.7Y-113.78
X76.7Y-116.32
X76.7Y-118.86
X76.7Y-121.4
X76.7Y-123.94
X76.7Y-126.48
X76.7Y-129.02
X76.7Y-131.56
X76.7Y-134.1
X76.7Y-136.64
X76.7Y-139.18
X76.7Y-141.72
X76.7Y-144.26
X76.7Y-146.8
X79.24Y-68.06
X79.24Y-70.6
X79.24Y-73.14
X79.24Y-75.68
X79.24Y-78.22
X79.24Y-80.76
X79.24Y-83.3
X79.24Y-85.84
X79.24Y-88.38
X79.24Y-90.92
X79.24Y-93.46
X79.24Y-96.0
X79.24Y-98.54
X79.24Y-101.08
X79.24Y-103.62
X79.24Y-106.16
X79.24Y-108.7
X79.24Y-111.24
X79.24Y-113.78
X79.24Y-116.32
X79.24Y-118.86
X79.24Y-121.4
X79.24Y-123.94
X79.24Y-126.48
X79.24Y-129.02
X79.24Y-131.56
X79.24Y-134.1
X79.24Y-136.64
X79.24Y-139.18
X79.24Y-141.72
X79.24Y-144.26
X79.24Y-146.8
T4
X121.46Y-67.59
X121.46Y-70.13
X121.46Y-72.67
X121.46Y-75.21
X121.46Y-77.75
X121.46Y-80.29
X121.46Y-82.83
X121.46Y-85.37
X121.46Y-87.91
X121.46Y-90.45
X124.0Y-67.59
X124.0Y-70.13
X124.0Y-72.67
X124.0Y-75.21
X124.0Y-77.75
X124.0Y-80.29
X124.0Y-82.83
X124.0Y-85.37
X124.0Y-87.91
X124.0Y-90.45
X121.46Y-102.51
X121.46Y-105.05
X121.46Y-107.59
X121.46Y-110.13
X121.46Y-112.67
X121.46Y-115.21
X121.46Y-117.75
X121.46Y-120.29
X121.46Y-122.83
X121.46Y-125.37
X121.46Y-127.91
X121.46Y-130.45
X121.46Y-132.99
X121.46Y-135.53
X121.46Y-138.07
X121.46Y-140.61
X121.46Y-143.15
X124.0Y-102.51
X124.0Y-105.05
X124.0Y-107.59
X124.0Y-110.13
X124.0Y-112.67
X124.0Y-115.21
X124.0Y-117.75
X124.0Y-120.29
X124.0Y-122.83
X124.0Y-125.37
X124.0Y-127.91
X124.0Y-130.45
X124.0Y-132.99
X124.0Y-135.53
X124.0Y-138.07
X124.0Y-140.61
X124.0Y-143.15
T3
G00X104.9Y-146.75
M15
G01X106.9Y-146.75
M16
G05
G00X104.9Y-152.75
M15
G01X106.9Y-152.75
M16
G05
G00X110.6Y-150.75
M15
G01X110.6Y-148.75
M16
G05
G00X91.8Y-146.75
M15
G01X93.8Y-146.75
M16
G05
G00X91.8Y-152.75
M15
G01X93.8Y-152.75
M16
G05
G00X97.5Y-150.75
M15
G01X97.5Y-148.75
M16
G05
T0
M30
