G04 #@! TF.GenerationSoftware,KiCad,Pcbnew,(5.1.2-1)-1*
G04 #@! TF.CreationDate,2022-02-01T20:28:38+01:00*
G04 #@! TF.ProjectId,AtomIOExt,41746f6d-494f-4457-9874-2e6b69636164,1.0*
G04 #@! TF.SameCoordinates,Original*
G04 #@! TF.FileFunction,Copper,L4,Bot*
G04 #@! TF.FilePolarity,Positive*
%FSLAX46Y46*%
G04 Gerber Fmt 4.6, Leading zero omitted, Abs format (unit mm)*
G04 Created by KiCad (PCBNEW (5.1.2-1)-1) date 2022-02-01 20:28:38*
%MOMM*%
%LPD*%
G04 APERTURE LIST*
%ADD10C,0.300000*%
%ADD11O,1.700000X1.700000*%
%ADD12R,1.700000X1.700000*%
%ADD13O,1.727200X1.727200*%
%ADD14R,1.727200X1.727200*%
%ADD15O,1.600000X1.600000*%
%ADD16R,1.600000X1.600000*%
%ADD17O,2.400000X1.600000*%
%ADD18R,2.400000X1.600000*%
%ADD19C,1.700000*%
%ADD20C,0.100000*%
%ADD21C,3.500000*%
%ADD22C,3.000000*%
%ADD23R,3.500000X3.500000*%
%ADD24C,1.600000*%
%ADD25C,0.600000*%
%ADD26C,0.250000*%
G04 APERTURE END LIST*
D10*
X89992857Y-153307142D02*
X89778571Y-153378571D01*
X89421428Y-153378571D01*
X89278571Y-153307142D01*
X89207142Y-153235714D01*
X89135714Y-153092857D01*
X89135714Y-152950000D01*
X89207142Y-152807142D01*
X89278571Y-152735714D01*
X89421428Y-152664285D01*
X89707142Y-152592857D01*
X89850000Y-152521428D01*
X89921428Y-152450000D01*
X89992857Y-152307142D01*
X89992857Y-152164285D01*
X89921428Y-152021428D01*
X89850000Y-151950000D01*
X89707142Y-151878571D01*
X89350000Y-151878571D01*
X89135714Y-151950000D01*
X88278571Y-153378571D02*
X88421428Y-153307142D01*
X88492857Y-153235714D01*
X88564285Y-153092857D01*
X88564285Y-152664285D01*
X88492857Y-152521428D01*
X88421428Y-152450000D01*
X88278571Y-152378571D01*
X88064285Y-152378571D01*
X87921428Y-152450000D01*
X87850000Y-152521428D01*
X87778571Y-152664285D01*
X87778571Y-153092857D01*
X87850000Y-153235714D01*
X87921428Y-153307142D01*
X88064285Y-153378571D01*
X88278571Y-153378571D01*
X86921428Y-153378571D02*
X87064285Y-153307142D01*
X87135714Y-153164285D01*
X87135714Y-151878571D01*
X85707142Y-153378571D02*
X85707142Y-151878571D01*
X85707142Y-153307142D02*
X85850000Y-153378571D01*
X86135714Y-153378571D01*
X86278571Y-153307142D01*
X86350000Y-153235714D01*
X86421428Y-153092857D01*
X86421428Y-152664285D01*
X86350000Y-152521428D01*
X86278571Y-152450000D01*
X86135714Y-152378571D01*
X85850000Y-152378571D01*
X85707142Y-152450000D01*
X84421428Y-153307142D02*
X84564285Y-153378571D01*
X84850000Y-153378571D01*
X84992857Y-153307142D01*
X85064285Y-153164285D01*
X85064285Y-152592857D01*
X84992857Y-152450000D01*
X84850000Y-152378571D01*
X84564285Y-152378571D01*
X84421428Y-152450000D01*
X84350000Y-152592857D01*
X84350000Y-152735714D01*
X85064285Y-152878571D01*
X83707142Y-153378571D02*
X83707142Y-152378571D01*
X83707142Y-152664285D02*
X83635714Y-152521428D01*
X83564285Y-152450000D01*
X83421428Y-152378571D01*
X83278571Y-152378571D01*
X81707142Y-153307142D02*
X81564285Y-153378571D01*
X81278571Y-153378571D01*
X81135714Y-153307142D01*
X81064285Y-153164285D01*
X81064285Y-153092857D01*
X81135714Y-152950000D01*
X81278571Y-152878571D01*
X81492857Y-152878571D01*
X81635714Y-152807142D01*
X81707142Y-152664285D01*
X81707142Y-152592857D01*
X81635714Y-152450000D01*
X81492857Y-152378571D01*
X81278571Y-152378571D01*
X81135714Y-152450000D01*
X80421428Y-153378571D02*
X80421428Y-152378571D01*
X80421428Y-151878571D02*
X80492857Y-151950000D01*
X80421428Y-152021428D01*
X80350000Y-151950000D01*
X80421428Y-151878571D01*
X80421428Y-152021428D01*
X79064285Y-153378571D02*
X79064285Y-151878571D01*
X79064285Y-153307142D02*
X79207142Y-153378571D01*
X79492857Y-153378571D01*
X79635714Y-153307142D01*
X79707142Y-153235714D01*
X79778571Y-153092857D01*
X79778571Y-152664285D01*
X79707142Y-152521428D01*
X79635714Y-152450000D01*
X79492857Y-152378571D01*
X79207142Y-152378571D01*
X79064285Y-152450000D01*
X77778571Y-153307142D02*
X77921428Y-153378571D01*
X78207142Y-153378571D01*
X78350000Y-153307142D01*
X78421428Y-153164285D01*
X78421428Y-152592857D01*
X78350000Y-152450000D01*
X78207142Y-152378571D01*
X77921428Y-152378571D01*
X77778571Y-152450000D01*
X77707142Y-152592857D01*
X77707142Y-152735714D01*
X78421428Y-152878571D01*
X74328571Y-66492857D02*
X72828571Y-66492857D01*
X73900000Y-66992857D01*
X72828571Y-67492857D01*
X74328571Y-67492857D01*
X72828571Y-68492857D02*
X72828571Y-68778571D01*
X72900000Y-68921428D01*
X73042857Y-69064285D01*
X73328571Y-69135714D01*
X73828571Y-69135714D01*
X74114285Y-69064285D01*
X74257142Y-68921428D01*
X74328571Y-68778571D01*
X74328571Y-68492857D01*
X74257142Y-68350000D01*
X74114285Y-68207142D01*
X73828571Y-68135714D01*
X73328571Y-68135714D01*
X73042857Y-68207142D01*
X72900000Y-68350000D01*
X72828571Y-68492857D01*
X72828571Y-69778571D02*
X74042857Y-69778571D01*
X74185714Y-69850000D01*
X74257142Y-69921428D01*
X74328571Y-70064285D01*
X74328571Y-70350000D01*
X74257142Y-70492857D01*
X74185714Y-70564285D01*
X74042857Y-70635714D01*
X72828571Y-70635714D01*
X74328571Y-71350000D02*
X72828571Y-71350000D01*
X74328571Y-72207142D01*
X72828571Y-72207142D01*
X72828571Y-72707142D02*
X72828571Y-73564285D01*
X74328571Y-73135714D02*
X72828571Y-73135714D01*
X74185714Y-76064285D02*
X74257142Y-75992857D01*
X74328571Y-75778571D01*
X74328571Y-75635714D01*
X74257142Y-75421428D01*
X74114285Y-75278571D01*
X73971428Y-75207142D01*
X73685714Y-75135714D01*
X73471428Y-75135714D01*
X73185714Y-75207142D01*
X73042857Y-75278571D01*
X72900000Y-75421428D01*
X72828571Y-75635714D01*
X72828571Y-75778571D01*
X72900000Y-75992857D01*
X72971428Y-76064285D01*
X72828571Y-76992857D02*
X72828571Y-77278571D01*
X72900000Y-77421428D01*
X73042857Y-77564285D01*
X73328571Y-77635714D01*
X73828571Y-77635714D01*
X74114285Y-77564285D01*
X74257142Y-77421428D01*
X74328571Y-77278571D01*
X74328571Y-76992857D01*
X74257142Y-76850000D01*
X74114285Y-76707142D01*
X73828571Y-76635714D01*
X73328571Y-76635714D01*
X73042857Y-76707142D01*
X72900000Y-76850000D01*
X72828571Y-76992857D01*
X74328571Y-78278571D02*
X72828571Y-78278571D01*
X74328571Y-79135714D01*
X72828571Y-79135714D01*
X74328571Y-79850000D02*
X72828571Y-79850000D01*
X74328571Y-80707142D01*
X72828571Y-80707142D01*
X73542857Y-81421428D02*
X73542857Y-81921428D01*
X74328571Y-82135714D02*
X74328571Y-81421428D01*
X72828571Y-81421428D01*
X72828571Y-82135714D01*
X74185714Y-83635714D02*
X74257142Y-83564285D01*
X74328571Y-83350000D01*
X74328571Y-83207142D01*
X74257142Y-82992857D01*
X74114285Y-82850000D01*
X73971428Y-82778571D01*
X73685714Y-82707142D01*
X73471428Y-82707142D01*
X73185714Y-82778571D01*
X73042857Y-82850000D01*
X72900000Y-82992857D01*
X72828571Y-83207142D01*
X72828571Y-83350000D01*
X72900000Y-83564285D01*
X72971428Y-83635714D01*
X72828571Y-84064285D02*
X72828571Y-84921428D01*
X74328571Y-84492857D02*
X72828571Y-84492857D01*
X72828571Y-85707142D02*
X72828571Y-85992857D01*
X72900000Y-86135714D01*
X73042857Y-86278571D01*
X73328571Y-86350000D01*
X73828571Y-86350000D01*
X74114285Y-86278571D01*
X74257142Y-86135714D01*
X74328571Y-85992857D01*
X74328571Y-85707142D01*
X74257142Y-85564285D01*
X74114285Y-85421428D01*
X73828571Y-85350000D01*
X73328571Y-85350000D01*
X73042857Y-85421428D01*
X72900000Y-85564285D01*
X72828571Y-85707142D01*
X74328571Y-87850000D02*
X73614285Y-87350000D01*
X74328571Y-86992857D02*
X72828571Y-86992857D01*
X72828571Y-87564285D01*
X72900000Y-87707142D01*
X72971428Y-87778571D01*
X73114285Y-87850000D01*
X73328571Y-87850000D01*
X73471428Y-87778571D01*
X73542857Y-87707142D01*
X73614285Y-87564285D01*
X73614285Y-86992857D01*
X73900000Y-89564285D02*
X73900000Y-90278571D01*
X74328571Y-89421428D02*
X72828571Y-89921428D01*
X74328571Y-90421428D01*
X72828571Y-90707142D02*
X72828571Y-91564285D01*
X74328571Y-91135714D02*
X72828571Y-91135714D01*
X73542857Y-93707142D02*
X73614285Y-93921428D01*
X73685714Y-93992857D01*
X73828571Y-94064285D01*
X74042857Y-94064285D01*
X74185714Y-93992857D01*
X74257142Y-93921428D01*
X74328571Y-93778571D01*
X74328571Y-93207142D01*
X72828571Y-93207142D01*
X72828571Y-93707142D01*
X72900000Y-93850000D01*
X72971428Y-93921428D01*
X73114285Y-93992857D01*
X73257142Y-93992857D01*
X73400000Y-93921428D01*
X73471428Y-93850000D01*
X73542857Y-93707142D01*
X73542857Y-93207142D01*
X72828571Y-94992857D02*
X72828571Y-95278571D01*
X72900000Y-95421428D01*
X73042857Y-95564285D01*
X73328571Y-95635714D01*
X73828571Y-95635714D01*
X74114285Y-95564285D01*
X74257142Y-95421428D01*
X74328571Y-95278571D01*
X74328571Y-94992857D01*
X74257142Y-94850000D01*
X74114285Y-94707142D01*
X73828571Y-94635714D01*
X73328571Y-94635714D01*
X73042857Y-94707142D01*
X72900000Y-94850000D01*
X72828571Y-94992857D01*
X72828571Y-96064285D02*
X72828571Y-96921428D01*
X74328571Y-96492857D02*
X72828571Y-96492857D01*
X72828571Y-97207142D02*
X72828571Y-98064285D01*
X74328571Y-97635714D02*
X72828571Y-97635714D01*
X72828571Y-98850000D02*
X72828571Y-99135714D01*
X72900000Y-99278571D01*
X73042857Y-99421428D01*
X73328571Y-99492857D01*
X73828571Y-99492857D01*
X74114285Y-99421428D01*
X74257142Y-99278571D01*
X74328571Y-99135714D01*
X74328571Y-98850000D01*
X74257142Y-98707142D01*
X74114285Y-98564285D01*
X73828571Y-98492857D01*
X73328571Y-98492857D01*
X73042857Y-98564285D01*
X72900000Y-98707142D01*
X72828571Y-98850000D01*
X74328571Y-100135714D02*
X72828571Y-100135714D01*
X73900000Y-100635714D01*
X72828571Y-101135714D01*
X74328571Y-101135714D01*
X74257142Y-102921428D02*
X74328571Y-103135714D01*
X74328571Y-103492857D01*
X74257142Y-103635714D01*
X74185714Y-103707142D01*
X74042857Y-103778571D01*
X73900000Y-103778571D01*
X73757142Y-103707142D01*
X73685714Y-103635714D01*
X73614285Y-103492857D01*
X73542857Y-103207142D01*
X73471428Y-103064285D01*
X73400000Y-102992857D01*
X73257142Y-102921428D01*
X73114285Y-102921428D01*
X72971428Y-102992857D01*
X72900000Y-103064285D01*
X72828571Y-103207142D01*
X72828571Y-103564285D01*
X72900000Y-103778571D01*
X74328571Y-104421428D02*
X72828571Y-104421428D01*
X74328571Y-105135714D02*
X72828571Y-105135714D01*
X72828571Y-105492857D01*
X72900000Y-105707142D01*
X73042857Y-105850000D01*
X73185714Y-105921428D01*
X73471428Y-105992857D01*
X73685714Y-105992857D01*
X73971428Y-105921428D01*
X74114285Y-105850000D01*
X74257142Y-105707142D01*
X74328571Y-105492857D01*
X74328571Y-105135714D01*
X73542857Y-106635714D02*
X73542857Y-107135714D01*
X74328571Y-107350000D02*
X74328571Y-106635714D01*
X72828571Y-106635714D01*
X72828571Y-107350000D01*
X73900000Y-109064285D02*
X73900000Y-109778571D01*
X74328571Y-108921428D02*
X72828571Y-109421428D01*
X74328571Y-109921428D01*
X74328571Y-110421428D02*
X72828571Y-110421428D01*
X74328571Y-111278571D01*
X72828571Y-111278571D01*
X74328571Y-111992857D02*
X72828571Y-111992857D01*
X72828571Y-112350000D01*
X72900000Y-112564285D01*
X73042857Y-112707142D01*
X73185714Y-112778571D01*
X73471428Y-112850000D01*
X73685714Y-112850000D01*
X73971428Y-112778571D01*
X74114285Y-112707142D01*
X74257142Y-112564285D01*
X74328571Y-112350000D01*
X74328571Y-111992857D01*
X74257142Y-114564285D02*
X74328571Y-114778571D01*
X74328571Y-115135714D01*
X74257142Y-115278571D01*
X74185714Y-115350000D01*
X74042857Y-115421428D01*
X73900000Y-115421428D01*
X73757142Y-115350000D01*
X73685714Y-115278571D01*
X73614285Y-115135714D01*
X73542857Y-114850000D01*
X73471428Y-114707142D01*
X73400000Y-114635714D01*
X73257142Y-114564285D01*
X73114285Y-114564285D01*
X72971428Y-114635714D01*
X72900000Y-114707142D01*
X72828571Y-114850000D01*
X72828571Y-115207142D01*
X72900000Y-115421428D01*
X72828571Y-116350000D02*
X72828571Y-116635714D01*
X72900000Y-116778571D01*
X73042857Y-116921428D01*
X73328571Y-116992857D01*
X73828571Y-116992857D01*
X74114285Y-116921428D01*
X74257142Y-116778571D01*
X74328571Y-116635714D01*
X74328571Y-116350000D01*
X74257142Y-116207142D01*
X74114285Y-116064285D01*
X73828571Y-115992857D01*
X73328571Y-115992857D01*
X73042857Y-116064285D01*
X72900000Y-116207142D01*
X72828571Y-116350000D01*
X74328571Y-118350000D02*
X74328571Y-117635714D01*
X72828571Y-117635714D01*
X74328571Y-118850000D02*
X72828571Y-118850000D01*
X72828571Y-119207142D01*
X72900000Y-119421428D01*
X73042857Y-119564285D01*
X73185714Y-119635714D01*
X73471428Y-119707142D01*
X73685714Y-119707142D01*
X73971428Y-119635714D01*
X74114285Y-119564285D01*
X74257142Y-119421428D01*
X74328571Y-119207142D01*
X74328571Y-118850000D01*
X73542857Y-120350000D02*
X73542857Y-120850000D01*
X74328571Y-121064285D02*
X74328571Y-120350000D01*
X72828571Y-120350000D01*
X72828571Y-121064285D01*
X74328571Y-122564285D02*
X73614285Y-122064285D01*
X74328571Y-121707142D02*
X72828571Y-121707142D01*
X72828571Y-122278571D01*
X72900000Y-122421428D01*
X72971428Y-122492857D01*
X73114285Y-122564285D01*
X73328571Y-122564285D01*
X73471428Y-122492857D01*
X73542857Y-122421428D01*
X73614285Y-122278571D01*
X73614285Y-121707142D01*
X73900000Y-124278571D02*
X73900000Y-124992857D01*
X74328571Y-124135714D02*
X72828571Y-124635714D01*
X74328571Y-125135714D01*
X72828571Y-125421428D02*
X72828571Y-126278571D01*
X74328571Y-125850000D02*
X72828571Y-125850000D01*
X74185714Y-128778571D02*
X74257142Y-128707142D01*
X74328571Y-128492857D01*
X74328571Y-128350000D01*
X74257142Y-128135714D01*
X74114285Y-127992857D01*
X73971428Y-127921428D01*
X73685714Y-127850000D01*
X73471428Y-127850000D01*
X73185714Y-127921428D01*
X73042857Y-127992857D01*
X72900000Y-128135714D01*
X72828571Y-128350000D01*
X72828571Y-128492857D01*
X72900000Y-128707142D01*
X72971428Y-128778571D01*
X72828571Y-129707142D02*
X72828571Y-129992857D01*
X72900000Y-130135714D01*
X73042857Y-130278571D01*
X73328571Y-130350000D01*
X73828571Y-130350000D01*
X74114285Y-130278571D01*
X74257142Y-130135714D01*
X74328571Y-129992857D01*
X74328571Y-129707142D01*
X74257142Y-129564285D01*
X74114285Y-129421428D01*
X73828571Y-129350000D01*
X73328571Y-129350000D01*
X73042857Y-129421428D01*
X72900000Y-129564285D01*
X72828571Y-129707142D01*
X74328571Y-130992857D02*
X72828571Y-130992857D01*
X73900000Y-131492857D01*
X72828571Y-131992857D01*
X74328571Y-131992857D01*
X74328571Y-132707142D02*
X72828571Y-132707142D01*
X72828571Y-133278571D01*
X72900000Y-133421428D01*
X72971428Y-133492857D01*
X73114285Y-133564285D01*
X73328571Y-133564285D01*
X73471428Y-133492857D01*
X73542857Y-133421428D01*
X73614285Y-133278571D01*
X73614285Y-132707142D01*
X72828571Y-134492857D02*
X72828571Y-134778571D01*
X72900000Y-134921428D01*
X73042857Y-135064285D01*
X73328571Y-135135714D01*
X73828571Y-135135714D01*
X74114285Y-135064285D01*
X74257142Y-134921428D01*
X74328571Y-134778571D01*
X74328571Y-134492857D01*
X74257142Y-134350000D01*
X74114285Y-134207142D01*
X73828571Y-134135714D01*
X73328571Y-134135714D01*
X73042857Y-134207142D01*
X72900000Y-134350000D01*
X72828571Y-134492857D01*
X74328571Y-135778571D02*
X72828571Y-135778571D01*
X74328571Y-136635714D01*
X72828571Y-136635714D01*
X73542857Y-137350000D02*
X73542857Y-137850000D01*
X74328571Y-138064285D02*
X74328571Y-137350000D01*
X72828571Y-137350000D01*
X72828571Y-138064285D01*
X74328571Y-138707142D02*
X72828571Y-138707142D01*
X74328571Y-139564285D01*
X72828571Y-139564285D01*
X72828571Y-140064285D02*
X72828571Y-140921428D01*
X74328571Y-140492857D02*
X72828571Y-140492857D01*
X74257142Y-142492857D02*
X74328571Y-142707142D01*
X74328571Y-143064285D01*
X74257142Y-143207142D01*
X74185714Y-143278571D01*
X74042857Y-143350000D01*
X73900000Y-143350000D01*
X73757142Y-143278571D01*
X73685714Y-143207142D01*
X73614285Y-143064285D01*
X73542857Y-142778571D01*
X73471428Y-142635714D01*
X73400000Y-142564285D01*
X73257142Y-142492857D01*
X73114285Y-142492857D01*
X72971428Y-142564285D01*
X72900000Y-142635714D01*
X72828571Y-142778571D01*
X72828571Y-143135714D01*
X72900000Y-143350000D01*
X74328571Y-143992857D02*
X72828571Y-143992857D01*
X74328571Y-144707142D02*
X72828571Y-144707142D01*
X72828571Y-145064285D01*
X72900000Y-145278571D01*
X73042857Y-145421428D01*
X73185714Y-145492857D01*
X73471428Y-145564285D01*
X73685714Y-145564285D01*
X73971428Y-145492857D01*
X74114285Y-145421428D01*
X74257142Y-145278571D01*
X74328571Y-145064285D01*
X74328571Y-144707142D01*
X73542857Y-146207142D02*
X73542857Y-146707142D01*
X74328571Y-146921428D02*
X74328571Y-146207142D01*
X72828571Y-146207142D01*
X72828571Y-146921428D01*
X74185714Y-148707142D02*
X74257142Y-148778571D01*
X74328571Y-148707142D01*
X74257142Y-148635714D01*
X74185714Y-148707142D01*
X74328571Y-148707142D01*
X73757142Y-148707142D02*
X72900000Y-148635714D01*
X72828571Y-148707142D01*
X72900000Y-148778571D01*
X73757142Y-148707142D01*
X72828571Y-148707142D01*
D11*
X81800000Y-68060000D03*
X81800000Y-70600000D03*
X81800000Y-73140000D03*
X81800000Y-75680000D03*
X81800000Y-78220000D03*
X81800000Y-80760000D03*
X81800000Y-83300000D03*
X81800000Y-85840000D03*
X81800000Y-88380000D03*
X81800000Y-90920000D03*
X81800000Y-93460000D03*
X81800000Y-96000000D03*
X81800000Y-98540000D03*
X81800000Y-101080000D03*
X81800000Y-103620000D03*
X81800000Y-106160000D03*
X81800000Y-108700000D03*
X81800000Y-111240000D03*
X81800000Y-113780000D03*
X81800000Y-116320000D03*
X81800000Y-118860000D03*
X81800000Y-121400000D03*
X81800000Y-123940000D03*
X81800000Y-126480000D03*
X81800000Y-129020000D03*
X81800000Y-131560000D03*
X81800000Y-134100000D03*
X81800000Y-136640000D03*
X81800000Y-139180000D03*
X81800000Y-141720000D03*
X81800000Y-144260000D03*
D12*
X81800000Y-146800000D03*
D13*
X121460000Y-102510000D03*
X124000000Y-102510000D03*
X121460000Y-105050000D03*
X124000000Y-105050000D03*
X121460000Y-107590000D03*
X124000000Y-107590000D03*
X121460000Y-110130000D03*
X124000000Y-110130000D03*
X121460000Y-112670000D03*
X124000000Y-112670000D03*
X121460000Y-115210000D03*
X124000000Y-115210000D03*
X121460000Y-117750000D03*
X124000000Y-117750000D03*
X121460000Y-120290000D03*
X124000000Y-120290000D03*
X121460000Y-122830000D03*
X124000000Y-122830000D03*
X121460000Y-125370000D03*
X124000000Y-125370000D03*
X121460000Y-127910000D03*
X124000000Y-127910000D03*
X121460000Y-130450000D03*
X124000000Y-130450000D03*
X121460000Y-132990000D03*
X124000000Y-132990000D03*
X121460000Y-135530000D03*
X124000000Y-135530000D03*
X121460000Y-138070000D03*
X124000000Y-138070000D03*
X121460000Y-140610000D03*
X124000000Y-140610000D03*
X121460000Y-143150000D03*
D14*
X124000000Y-143150000D03*
D13*
X121460000Y-67590000D03*
X124000000Y-67590000D03*
X121460000Y-70130000D03*
X124000000Y-70130000D03*
X121460000Y-72670000D03*
X124000000Y-72670000D03*
X121460000Y-75210000D03*
X124000000Y-75210000D03*
X121460000Y-77750000D03*
X124000000Y-77750000D03*
X121460000Y-80290000D03*
X124000000Y-80290000D03*
X121460000Y-82830000D03*
X124000000Y-82830000D03*
X121460000Y-85370000D03*
X124000000Y-85370000D03*
X121460000Y-87910000D03*
X124000000Y-87910000D03*
X121460000Y-90450000D03*
D14*
X124000000Y-90450000D03*
D15*
X94560000Y-123950000D03*
X109800000Y-90930000D03*
X94560000Y-121410000D03*
X109800000Y-93470000D03*
X94560000Y-118870000D03*
X109800000Y-96010000D03*
X94560000Y-116330000D03*
X109800000Y-98550000D03*
X94560000Y-113790000D03*
X109800000Y-101090000D03*
X94560000Y-111250000D03*
X109800000Y-103630000D03*
X94560000Y-108710000D03*
X109800000Y-106170000D03*
X94560000Y-106170000D03*
X109800000Y-108710000D03*
X94560000Y-103630000D03*
X109800000Y-111250000D03*
X94560000Y-101090000D03*
X109800000Y-113790000D03*
X94560000Y-98550000D03*
X109800000Y-116330000D03*
X94560000Y-96010000D03*
X109800000Y-118870000D03*
X94560000Y-93470000D03*
X109800000Y-121410000D03*
X94560000Y-90930000D03*
D16*
X109800000Y-123950000D03*
D17*
X100730000Y-80250000D03*
X108350000Y-62470000D03*
X100730000Y-77710000D03*
X108350000Y-65010000D03*
X100730000Y-75170000D03*
X108350000Y-67550000D03*
X100730000Y-72630000D03*
X108350000Y-70090000D03*
X100730000Y-70090000D03*
X108350000Y-72630000D03*
X100730000Y-67550000D03*
X108350000Y-75170000D03*
X100730000Y-65010000D03*
X108350000Y-77710000D03*
X100730000Y-62470000D03*
D18*
X108350000Y-80250000D03*
D17*
X87230000Y-80250000D03*
X94850000Y-62470000D03*
X87230000Y-77710000D03*
X94850000Y-65010000D03*
X87230000Y-75170000D03*
X94850000Y-67550000D03*
X87230000Y-72630000D03*
X94850000Y-70090000D03*
X87230000Y-70090000D03*
X94850000Y-72630000D03*
X87230000Y-67550000D03*
X94850000Y-75170000D03*
X87230000Y-65010000D03*
X94850000Y-77710000D03*
X87230000Y-62470000D03*
D18*
X94850000Y-80250000D03*
D19*
X79240000Y-68060000D03*
X76700000Y-68060000D03*
X79240000Y-70600000D03*
X76700000Y-70600000D03*
X79240000Y-73140000D03*
X76700000Y-73140000D03*
X79240000Y-75680000D03*
X76700000Y-75680000D03*
X79240000Y-78220000D03*
X76700000Y-78220000D03*
X79240000Y-80760000D03*
X76700000Y-80760000D03*
X79240000Y-83300000D03*
X76700000Y-83300000D03*
X79240000Y-85840000D03*
X76700000Y-85840000D03*
X79240000Y-88380000D03*
X76700000Y-88380000D03*
X79240000Y-90920000D03*
X76700000Y-90920000D03*
X79240000Y-93460000D03*
X76700000Y-93460000D03*
X79240000Y-96000000D03*
X76700000Y-96000000D03*
X79240000Y-98540000D03*
X76700000Y-98540000D03*
X79240000Y-101080000D03*
X76700000Y-101080000D03*
X79240000Y-103620000D03*
X76700000Y-103620000D03*
X79240000Y-106160000D03*
X76700000Y-106160000D03*
X79240000Y-108700000D03*
X76700000Y-108700000D03*
X79240000Y-111240000D03*
X76700000Y-111240000D03*
X79240000Y-113780000D03*
X76700000Y-113780000D03*
X79240000Y-116320000D03*
X76700000Y-116320000D03*
X79240000Y-118860000D03*
X76700000Y-118860000D03*
X79240000Y-121400000D03*
X76700000Y-121400000D03*
X79240000Y-123940000D03*
X76700000Y-123940000D03*
X79240000Y-126480000D03*
X76700000Y-126480000D03*
X79240000Y-129020000D03*
X76700000Y-129020000D03*
X79240000Y-131560000D03*
X76700000Y-131560000D03*
X79240000Y-134100000D03*
X76700000Y-134100000D03*
X79240000Y-136640000D03*
X76700000Y-136640000D03*
X79240000Y-139180000D03*
X76700000Y-139180000D03*
X79240000Y-141720000D03*
X76700000Y-141720000D03*
X79240000Y-144260000D03*
X76700000Y-144260000D03*
X79240000Y-146800000D03*
D12*
X76700000Y-146800000D03*
D20*
G36*
X111560765Y-148004213D02*
G01*
X111645704Y-148016813D01*
X111728999Y-148037677D01*
X111809848Y-148066605D01*
X111887472Y-148103319D01*
X111961124Y-148147464D01*
X112030094Y-148198616D01*
X112093718Y-148256282D01*
X112151384Y-148319906D01*
X112202536Y-148388876D01*
X112246681Y-148462528D01*
X112283395Y-148540152D01*
X112312323Y-148621001D01*
X112333187Y-148704296D01*
X112345787Y-148789235D01*
X112350000Y-148875000D01*
X112350000Y-150625000D01*
X112345787Y-150710765D01*
X112333187Y-150795704D01*
X112312323Y-150878999D01*
X112283395Y-150959848D01*
X112246681Y-151037472D01*
X112202536Y-151111124D01*
X112151384Y-151180094D01*
X112093718Y-151243718D01*
X112030094Y-151301384D01*
X111961124Y-151352536D01*
X111887472Y-151396681D01*
X111809848Y-151433395D01*
X111728999Y-151462323D01*
X111645704Y-151483187D01*
X111560765Y-151495787D01*
X111475000Y-151500000D01*
X109725000Y-151500000D01*
X109639235Y-151495787D01*
X109554296Y-151483187D01*
X109471001Y-151462323D01*
X109390152Y-151433395D01*
X109312528Y-151396681D01*
X109238876Y-151352536D01*
X109169906Y-151301384D01*
X109106282Y-151243718D01*
X109048616Y-151180094D01*
X108997464Y-151111124D01*
X108953319Y-151037472D01*
X108916605Y-150959848D01*
X108887677Y-150878999D01*
X108866813Y-150795704D01*
X108854213Y-150710765D01*
X108850000Y-150625000D01*
X108850000Y-148875000D01*
X108854213Y-148789235D01*
X108866813Y-148704296D01*
X108887677Y-148621001D01*
X108916605Y-148540152D01*
X108953319Y-148462528D01*
X108997464Y-148388876D01*
X109048616Y-148319906D01*
X109106282Y-148256282D01*
X109169906Y-148198616D01*
X109238876Y-148147464D01*
X109312528Y-148103319D01*
X109390152Y-148066605D01*
X109471001Y-148037677D01*
X109554296Y-148016813D01*
X109639235Y-148004213D01*
X109725000Y-148000000D01*
X111475000Y-148000000D01*
X111560765Y-148004213D01*
X111560765Y-148004213D01*
G37*
D21*
X110600000Y-149750000D03*
D20*
G36*
X106973513Y-151253611D02*
G01*
X107046318Y-151264411D01*
X107117714Y-151282295D01*
X107187013Y-151307090D01*
X107253548Y-151338559D01*
X107316678Y-151376398D01*
X107375795Y-151420242D01*
X107430330Y-151469670D01*
X107479758Y-151524205D01*
X107523602Y-151583322D01*
X107561441Y-151646452D01*
X107592910Y-151712987D01*
X107617705Y-151782286D01*
X107635589Y-151853682D01*
X107646389Y-151926487D01*
X107650000Y-152000000D01*
X107650000Y-153500000D01*
X107646389Y-153573513D01*
X107635589Y-153646318D01*
X107617705Y-153717714D01*
X107592910Y-153787013D01*
X107561441Y-153853548D01*
X107523602Y-153916678D01*
X107479758Y-153975795D01*
X107430330Y-154030330D01*
X107375795Y-154079758D01*
X107316678Y-154123602D01*
X107253548Y-154161441D01*
X107187013Y-154192910D01*
X107117714Y-154217705D01*
X107046318Y-154235589D01*
X106973513Y-154246389D01*
X106900000Y-154250000D01*
X104900000Y-154250000D01*
X104826487Y-154246389D01*
X104753682Y-154235589D01*
X104682286Y-154217705D01*
X104612987Y-154192910D01*
X104546452Y-154161441D01*
X104483322Y-154123602D01*
X104424205Y-154079758D01*
X104369670Y-154030330D01*
X104320242Y-153975795D01*
X104276398Y-153916678D01*
X104238559Y-153853548D01*
X104207090Y-153787013D01*
X104182295Y-153717714D01*
X104164411Y-153646318D01*
X104153611Y-153573513D01*
X104150000Y-153500000D01*
X104150000Y-152000000D01*
X104153611Y-151926487D01*
X104164411Y-151853682D01*
X104182295Y-151782286D01*
X104207090Y-151712987D01*
X104238559Y-151646452D01*
X104276398Y-151583322D01*
X104320242Y-151524205D01*
X104369670Y-151469670D01*
X104424205Y-151420242D01*
X104483322Y-151376398D01*
X104546452Y-151338559D01*
X104612987Y-151307090D01*
X104682286Y-151282295D01*
X104753682Y-151264411D01*
X104826487Y-151253611D01*
X104900000Y-151250000D01*
X106900000Y-151250000D01*
X106973513Y-151253611D01*
X106973513Y-151253611D01*
G37*
D22*
X105900000Y-152750000D03*
D23*
X105900000Y-146750000D03*
D20*
G36*
X98460765Y-148004213D02*
G01*
X98545704Y-148016813D01*
X98628999Y-148037677D01*
X98709848Y-148066605D01*
X98787472Y-148103319D01*
X98861124Y-148147464D01*
X98930094Y-148198616D01*
X98993718Y-148256282D01*
X99051384Y-148319906D01*
X99102536Y-148388876D01*
X99146681Y-148462528D01*
X99183395Y-148540152D01*
X99212323Y-148621001D01*
X99233187Y-148704296D01*
X99245787Y-148789235D01*
X99250000Y-148875000D01*
X99250000Y-150625000D01*
X99245787Y-150710765D01*
X99233187Y-150795704D01*
X99212323Y-150878999D01*
X99183395Y-150959848D01*
X99146681Y-151037472D01*
X99102536Y-151111124D01*
X99051384Y-151180094D01*
X98993718Y-151243718D01*
X98930094Y-151301384D01*
X98861124Y-151352536D01*
X98787472Y-151396681D01*
X98709848Y-151433395D01*
X98628999Y-151462323D01*
X98545704Y-151483187D01*
X98460765Y-151495787D01*
X98375000Y-151500000D01*
X96625000Y-151500000D01*
X96539235Y-151495787D01*
X96454296Y-151483187D01*
X96371001Y-151462323D01*
X96290152Y-151433395D01*
X96212528Y-151396681D01*
X96138876Y-151352536D01*
X96069906Y-151301384D01*
X96006282Y-151243718D01*
X95948616Y-151180094D01*
X95897464Y-151111124D01*
X95853319Y-151037472D01*
X95816605Y-150959848D01*
X95787677Y-150878999D01*
X95766813Y-150795704D01*
X95754213Y-150710765D01*
X95750000Y-150625000D01*
X95750000Y-148875000D01*
X95754213Y-148789235D01*
X95766813Y-148704296D01*
X95787677Y-148621001D01*
X95816605Y-148540152D01*
X95853319Y-148462528D01*
X95897464Y-148388876D01*
X95948616Y-148319906D01*
X96006282Y-148256282D01*
X96069906Y-148198616D01*
X96138876Y-148147464D01*
X96212528Y-148103319D01*
X96290152Y-148066605D01*
X96371001Y-148037677D01*
X96454296Y-148016813D01*
X96539235Y-148004213D01*
X96625000Y-148000000D01*
X98375000Y-148000000D01*
X98460765Y-148004213D01*
X98460765Y-148004213D01*
G37*
D21*
X97500000Y-149750000D03*
D20*
G36*
X93873513Y-151253611D02*
G01*
X93946318Y-151264411D01*
X94017714Y-151282295D01*
X94087013Y-151307090D01*
X94153548Y-151338559D01*
X94216678Y-151376398D01*
X94275795Y-151420242D01*
X94330330Y-151469670D01*
X94379758Y-151524205D01*
X94423602Y-151583322D01*
X94461441Y-151646452D01*
X94492910Y-151712987D01*
X94517705Y-151782286D01*
X94535589Y-151853682D01*
X94546389Y-151926487D01*
X94550000Y-152000000D01*
X94550000Y-153500000D01*
X94546389Y-153573513D01*
X94535589Y-153646318D01*
X94517705Y-153717714D01*
X94492910Y-153787013D01*
X94461441Y-153853548D01*
X94423602Y-153916678D01*
X94379758Y-153975795D01*
X94330330Y-154030330D01*
X94275795Y-154079758D01*
X94216678Y-154123602D01*
X94153548Y-154161441D01*
X94087013Y-154192910D01*
X94017714Y-154217705D01*
X93946318Y-154235589D01*
X93873513Y-154246389D01*
X93800000Y-154250000D01*
X91800000Y-154250000D01*
X91726487Y-154246389D01*
X91653682Y-154235589D01*
X91582286Y-154217705D01*
X91512987Y-154192910D01*
X91446452Y-154161441D01*
X91383322Y-154123602D01*
X91324205Y-154079758D01*
X91269670Y-154030330D01*
X91220242Y-153975795D01*
X91176398Y-153916678D01*
X91138559Y-153853548D01*
X91107090Y-153787013D01*
X91082295Y-153717714D01*
X91064411Y-153646318D01*
X91053611Y-153573513D01*
X91050000Y-153500000D01*
X91050000Y-152000000D01*
X91053611Y-151926487D01*
X91064411Y-151853682D01*
X91082295Y-151782286D01*
X91107090Y-151712987D01*
X91138559Y-151646452D01*
X91176398Y-151583322D01*
X91220242Y-151524205D01*
X91269670Y-151469670D01*
X91324205Y-151420242D01*
X91383322Y-151376398D01*
X91446452Y-151338559D01*
X91512987Y-151307090D01*
X91582286Y-151282295D01*
X91653682Y-151264411D01*
X91726487Y-151253611D01*
X91800000Y-151250000D01*
X93800000Y-151250000D01*
X93873513Y-151253611D01*
X93873513Y-151253611D01*
G37*
D22*
X92800000Y-152750000D03*
D23*
X92800000Y-146750000D03*
D11*
X89550000Y-136580000D03*
X89550000Y-134040000D03*
D12*
X89550000Y-131500000D03*
D24*
X99550000Y-131500000D03*
X94550000Y-131500000D03*
X107100000Y-85400000D03*
X102100000Y-85400000D03*
X93600000Y-85350000D03*
X88600000Y-85350000D03*
D25*
X119900000Y-113250000D03*
X87400000Y-98500000D03*
X87400000Y-104900000D03*
X87400000Y-117650000D03*
X86450000Y-96000000D03*
X86450000Y-102350000D03*
X118600000Y-101650000D03*
X119250000Y-114000000D03*
X118550000Y-99100000D03*
X84550000Y-99900000D03*
X84550000Y-93400000D03*
X98150000Y-97150000D03*
X98150000Y-93450000D03*
X108150000Y-92100000D03*
X124900000Y-96000000D03*
X83850000Y-97350000D03*
X83850000Y-90950000D03*
X103500000Y-94600000D03*
X103500000Y-90900000D03*
X107250000Y-89750000D03*
X128300000Y-76450000D03*
X128300000Y-136800000D03*
X119350000Y-112600000D03*
X119350000Y-103550000D03*
X119350000Y-110100000D03*
X88450000Y-101100000D03*
X88450000Y-107450000D03*
X107675001Y-109875001D03*
X117900000Y-120050000D03*
X117900000Y-107600000D03*
X116700000Y-115000000D03*
X116700000Y-106200000D03*
X116700000Y-108800000D03*
X83450000Y-140600000D03*
X129150000Y-141850000D03*
X129150000Y-71500000D03*
X119500000Y-135350000D03*
X99100000Y-118275000D03*
X99100000Y-88700000D03*
X99800000Y-120675000D03*
X99750000Y-87900000D03*
X100550000Y-121975000D03*
X100550000Y-86950000D03*
X101400000Y-126450000D03*
X100650000Y-82850000D03*
X102250000Y-129100000D03*
X103200000Y-79525000D03*
X102950000Y-132350000D03*
X104300000Y-77075000D03*
X127400000Y-58400000D03*
X127400000Y-134250000D03*
X76650000Y-58500000D03*
X91000000Y-143800000D03*
X92450000Y-143000000D03*
X83700000Y-116250000D03*
X83700000Y-132850000D03*
X106000000Y-116350000D03*
X105700000Y-80300000D03*
X112250000Y-130250000D03*
X112250000Y-118900000D03*
X112250000Y-102500000D03*
X113150000Y-127700000D03*
X113150000Y-100850000D03*
X113150000Y-116300000D03*
X114400000Y-125250000D03*
X114450000Y-104300000D03*
X114400000Y-113800000D03*
X115500000Y-122600000D03*
X115550000Y-105100000D03*
X115500000Y-111250000D03*
X91750000Y-77700000D03*
X91650000Y-87050000D03*
X94850000Y-83400000D03*
X104950000Y-82100000D03*
X104950000Y-67600000D03*
X96400000Y-82100000D03*
X89750000Y-106200000D03*
X89750000Y-79150000D03*
X89750000Y-74000000D03*
X96450000Y-113750000D03*
X97150000Y-78900000D03*
X83300000Y-77050000D03*
X83300000Y-82725000D03*
X97150000Y-82725000D03*
X86450000Y-134050000D03*
X86450000Y-118850000D03*
X85000000Y-137800000D03*
X85050000Y-108750000D03*
X126550000Y-66400000D03*
X126550000Y-131700000D03*
X125850000Y-68800000D03*
X125850000Y-129200000D03*
X85500000Y-103650000D03*
D26*
X77875001Y-71964999D02*
X80624999Y-71964999D01*
X87450000Y-98550000D02*
X87400000Y-98500000D01*
X94560000Y-98550000D02*
X87450000Y-98550000D01*
X80500000Y-104900000D02*
X79240000Y-106160000D01*
X87400000Y-104900000D02*
X80500000Y-104900000D01*
X114975002Y-117650000D02*
X87400000Y-117650000D01*
X119020000Y-117650000D02*
X114975002Y-117650000D01*
X121460000Y-115210000D02*
X119020000Y-117650000D01*
X86460000Y-96010000D02*
X86450000Y-96000000D01*
X94560000Y-96010000D02*
X86460000Y-96010000D01*
X80510000Y-102350000D02*
X79240000Y-103620000D01*
X86450000Y-102350000D02*
X80510000Y-102350000D01*
X112174998Y-101650000D02*
X118600000Y-101650000D01*
X111474998Y-102350000D02*
X112174998Y-101650000D01*
X86450000Y-102350000D02*
X111474998Y-102350000D01*
X123136401Y-114346401D02*
X124000000Y-115210000D01*
X122355531Y-114346401D02*
X123136401Y-114346401D01*
X122009130Y-114000000D02*
X122355531Y-114346401D01*
X119250000Y-114000000D02*
X122009130Y-114000000D01*
X126550010Y-113881304D02*
X126550009Y-101063599D01*
X125221314Y-115210000D02*
X126550010Y-113881304D01*
X126550009Y-101063599D02*
X124586410Y-99100000D01*
X124000000Y-115210000D02*
X125221314Y-115210000D01*
X124586410Y-99100000D02*
X118550000Y-99100000D01*
X84545001Y-99904999D02*
X84550000Y-99900000D01*
X80415001Y-99904999D02*
X84545001Y-99904999D01*
X79240000Y-101080000D02*
X80415001Y-99904999D01*
X94490000Y-93400000D02*
X94560000Y-93470000D01*
X84550000Y-93400000D02*
X94490000Y-93400000D01*
X127000019Y-114067703D02*
X127000019Y-98250019D01*
X124617724Y-116450000D02*
X127000019Y-114067703D01*
X122760000Y-116450000D02*
X124617724Y-116450000D01*
X121460000Y-117750000D02*
X122760000Y-116450000D01*
X125900000Y-97150000D02*
X98150000Y-97150000D01*
X127000019Y-98250019D02*
X125900000Y-97150000D01*
X94580000Y-93450000D02*
X94560000Y-93470000D01*
X98150000Y-93450000D02*
X94580000Y-93450000D01*
X81420998Y-92100000D02*
X108150000Y-92100000D01*
X80600000Y-92100000D02*
X81420998Y-92100000D01*
X79240000Y-93460000D02*
X80600000Y-92100000D01*
X124890000Y-96010000D02*
X124900000Y-96000000D01*
X109800000Y-96010000D02*
X124890000Y-96010000D01*
X102930000Y-93470000D02*
X109800000Y-93470000D01*
X101575001Y-94824999D02*
X102930000Y-93470000D01*
X80415001Y-94824999D02*
X101575001Y-94824999D01*
X79240000Y-96000000D02*
X80415001Y-94824999D01*
X126297809Y-118938601D02*
X128100000Y-117136410D01*
X122811399Y-118938601D02*
X126297809Y-118938601D01*
X121460000Y-120290000D02*
X122811399Y-118938601D01*
X128100000Y-117136410D02*
X128100000Y-94650000D01*
X126920000Y-93470000D02*
X109800000Y-93470000D01*
X128100000Y-94650000D02*
X126920000Y-93470000D01*
X81250998Y-97350000D02*
X83850000Y-97350000D01*
X80430000Y-97350000D02*
X81250998Y-97350000D01*
X79240000Y-98540000D02*
X80430000Y-97350000D01*
X94540000Y-90950000D02*
X94560000Y-90930000D01*
X83850000Y-90950000D02*
X94540000Y-90950000D01*
X127450028Y-117149972D02*
X126850000Y-117750000D01*
X127450028Y-95250028D02*
X127450028Y-117149972D01*
X126850000Y-117750000D02*
X124000000Y-117750000D01*
X126800000Y-94600000D02*
X127450028Y-95250028D01*
X103500000Y-94600000D02*
X126800000Y-94600000D01*
X95450000Y-90900000D02*
X103500000Y-90900000D01*
X95420000Y-90930000D02*
X95450000Y-90900000D01*
X95420000Y-90930000D02*
X94560000Y-90930000D01*
X80415001Y-89744999D02*
X107244999Y-89744999D01*
X107244999Y-89744999D02*
X107250000Y-89750000D01*
X79240000Y-90920000D02*
X80415001Y-89744999D01*
X122811399Y-121478601D02*
X127771399Y-121478601D01*
X121460000Y-122830000D02*
X122811399Y-121478601D01*
X128550010Y-120699990D02*
X128550010Y-90450010D01*
X127771399Y-121478601D02*
X128550010Y-120699990D01*
X107901399Y-89098601D02*
X107549999Y-89450001D01*
X127198601Y-89098601D02*
X107901399Y-89098601D01*
X107549999Y-89450001D02*
X107250000Y-89750000D01*
X128550010Y-90450010D02*
X127198601Y-89098601D01*
X80950001Y-74830001D02*
X81800000Y-75680000D01*
X80624999Y-74504999D02*
X80950001Y-74830001D01*
X77500998Y-75680000D02*
X78675999Y-74504999D01*
X78675999Y-74504999D02*
X80624999Y-74504999D01*
X76700000Y-75680000D02*
X77500998Y-75680000D01*
X85748996Y-75680000D02*
X86518996Y-76450000D01*
X86518996Y-76450000D02*
X128300000Y-76450000D01*
X81800000Y-75680000D02*
X85748996Y-75680000D01*
X122730000Y-136800000D02*
X121460000Y-138070000D01*
X128300000Y-136800000D02*
X122730000Y-136800000D01*
X80420000Y-112600000D02*
X119350000Y-112600000D01*
X79240000Y-113780000D02*
X80420000Y-112600000D01*
X109880000Y-103550000D02*
X109800000Y-103630000D01*
X119350000Y-103550000D02*
X109880000Y-103550000D01*
X119380000Y-110130000D02*
X119350000Y-110100000D01*
X121460000Y-110130000D02*
X119380000Y-110130000D01*
X88460000Y-101090000D02*
X88450000Y-101100000D01*
X94560000Y-101090000D02*
X88460000Y-101090000D01*
X80490000Y-107450000D02*
X79240000Y-108700000D01*
X88450000Y-107450000D02*
X80490000Y-107450000D01*
X124000000Y-112670000D02*
X126100000Y-110570000D01*
X126100000Y-110570000D02*
X126100000Y-101250000D01*
X124814999Y-99964999D02*
X104085001Y-99964999D01*
X126100000Y-101250000D02*
X124814999Y-99964999D01*
X102960000Y-101090000D02*
X94560000Y-101090000D01*
X104085001Y-99964999D02*
X102960000Y-101090000D01*
X79240000Y-111240000D02*
X80604999Y-109875001D01*
X123136401Y-110993599D02*
X124000000Y-110130000D01*
X122811399Y-111318601D02*
X123136401Y-110993599D01*
X116968601Y-111318601D02*
X122811399Y-111318601D01*
X115525001Y-109875001D02*
X116968601Y-111318601D01*
X107675001Y-109875001D02*
X115525001Y-109875001D01*
X80604999Y-109875001D02*
X107675001Y-109875001D01*
X80910997Y-119709999D02*
X81250998Y-120050000D01*
X80089999Y-119709999D02*
X80910997Y-119709999D01*
X81250998Y-120050000D02*
X117900000Y-120050000D01*
X79240000Y-118860000D02*
X80089999Y-119709999D01*
X121450000Y-107600000D02*
X121460000Y-107590000D01*
X117900000Y-107600000D02*
X121450000Y-107600000D01*
X117475736Y-107600000D02*
X117900000Y-107600000D01*
X112041370Y-107600000D02*
X117475736Y-107600000D01*
X110931370Y-108710000D02*
X112041370Y-107600000D01*
X109800000Y-108710000D02*
X110931370Y-108710000D01*
X116655001Y-114955001D02*
X116700000Y-115000000D01*
X80604999Y-114955001D02*
X116655001Y-114955001D01*
X79240000Y-116320000D02*
X80604999Y-114955001D01*
X109830000Y-106200000D02*
X109800000Y-106170000D01*
X116700000Y-106200000D02*
X109830000Y-106200000D01*
X124000000Y-107590000D02*
X122790000Y-108800000D01*
X122790000Y-108800000D02*
X116700000Y-108800000D01*
X121450000Y-140600000D02*
X121460000Y-140610000D01*
X83450000Y-140600000D02*
X121450000Y-140600000D01*
X122760000Y-141850000D02*
X121460000Y-143150000D01*
X129150000Y-141850000D02*
X122760000Y-141850000D01*
X86653986Y-73755010D02*
X88494990Y-73755010D01*
X81235999Y-74315001D02*
X86093995Y-74315001D01*
X86093995Y-74315001D02*
X86653986Y-73755010D01*
X80910997Y-73989999D02*
X81235999Y-74315001D01*
X80089999Y-73989999D02*
X80910997Y-73989999D01*
X79240000Y-73140000D02*
X80089999Y-73989999D01*
X90768601Y-71481399D02*
X129131399Y-71481399D01*
X129131399Y-71481399D02*
X129150000Y-71500000D01*
X88494990Y-73755010D02*
X90768601Y-71481399D01*
X80154989Y-135014989D02*
X80811400Y-135014990D01*
X80811400Y-135014990D02*
X81196410Y-135400000D01*
X79240000Y-134100000D02*
X80154989Y-135014989D01*
X119450000Y-135400000D02*
X119500000Y-135350000D01*
X81196410Y-135400000D02*
X119450000Y-135400000D01*
X80950001Y-118010001D02*
X81800000Y-118860000D01*
X77875001Y-117684999D02*
X80624999Y-117684999D01*
X80624999Y-117684999D02*
X80950001Y-118010001D01*
X76700000Y-118860000D02*
X77875001Y-117684999D01*
X80624999Y-120224999D02*
X80950001Y-120550001D01*
X77875001Y-120224999D02*
X80624999Y-120224999D01*
X80950001Y-120550001D02*
X81800000Y-121400000D01*
X76700000Y-121400000D02*
X77875001Y-120224999D01*
X80950001Y-123090001D02*
X81800000Y-123940000D01*
X78064999Y-122575001D02*
X80435001Y-122575001D01*
X80435001Y-122575001D02*
X80950001Y-123090001D01*
X76700000Y-123940000D02*
X78064999Y-122575001D01*
X80624999Y-125304999D02*
X80950001Y-125630001D01*
X80950001Y-125630001D02*
X81800000Y-126480000D01*
X77875001Y-125304999D02*
X80624999Y-125304999D01*
X76700000Y-126480000D02*
X77875001Y-125304999D01*
X80950001Y-128170001D02*
X81800000Y-129020000D01*
X80624999Y-127844999D02*
X80950001Y-128170001D01*
X77875001Y-127844999D02*
X80624999Y-127844999D01*
X76700000Y-129020000D02*
X77875001Y-127844999D01*
X80950001Y-130710001D02*
X81800000Y-131560000D01*
X80624999Y-130384999D02*
X80950001Y-130710001D01*
X77875001Y-130384999D02*
X80624999Y-130384999D01*
X76700000Y-131560000D02*
X77875001Y-130384999D01*
X80950001Y-133250001D02*
X81800000Y-134100000D01*
X80624999Y-132924999D02*
X80950001Y-133250001D01*
X77875001Y-132924999D02*
X80624999Y-132924999D01*
X76700000Y-134100000D02*
X77875001Y-132924999D01*
X80950001Y-135790001D02*
X81800000Y-136640000D01*
X80624999Y-135464999D02*
X80950001Y-135790001D01*
X77875001Y-135464999D02*
X80624999Y-135464999D01*
X76700000Y-136640000D02*
X77875001Y-135464999D01*
X80950001Y-138330001D02*
X81800000Y-139180000D01*
X77875001Y-138004999D02*
X80624999Y-138004999D01*
X80624999Y-138004999D02*
X80950001Y-138330001D01*
X76700000Y-139180000D02*
X77875001Y-138004999D01*
X80624999Y-140544999D02*
X80950001Y-140870001D01*
X80950001Y-140870001D02*
X81800000Y-141720000D01*
X77875001Y-140544999D02*
X80624999Y-140544999D01*
X76700000Y-141720000D02*
X77875001Y-140544999D01*
X127300000Y-58500000D02*
X127400000Y-58400000D01*
X83800000Y-58500000D02*
X127300000Y-58500000D01*
X122740000Y-134250000D02*
X121460000Y-135530000D01*
X127400000Y-134250000D02*
X122740000Y-134250000D01*
X80293591Y-79069999D02*
X80950001Y-79069999D01*
X80950001Y-79069999D02*
X81800000Y-78220000D01*
X79968589Y-79395001D02*
X80293591Y-79069999D01*
X77875001Y-79395001D02*
X79968589Y-79395001D01*
X76700000Y-78220000D02*
X77875001Y-79395001D01*
X83800000Y-58500000D02*
X76650000Y-58500000D01*
X80089999Y-145109999D02*
X79240000Y-144260000D01*
X80415001Y-145435001D02*
X80089999Y-145109999D01*
X89789263Y-145435001D02*
X80415001Y-145435001D01*
X91000000Y-144224264D02*
X89789263Y-145435001D01*
X91000000Y-143800000D02*
X91000000Y-144224264D01*
X80520000Y-143000000D02*
X79240000Y-141720000D01*
X92450000Y-143000000D02*
X80520000Y-143000000D01*
X83780000Y-116330000D02*
X83700000Y-116250000D01*
X94560000Y-116330000D02*
X83780000Y-116330000D01*
X80910997Y-132409999D02*
X80089999Y-132409999D01*
X80089999Y-132409999D02*
X79240000Y-131560000D01*
X81350998Y-132850000D02*
X80910997Y-132409999D01*
X83700000Y-132850000D02*
X81350998Y-132850000D01*
X105980000Y-116330000D02*
X106000000Y-116350000D01*
X94560000Y-116330000D02*
X105980000Y-116330000D01*
X108300000Y-80300000D02*
X108350000Y-80250000D01*
X105700000Y-80300000D02*
X108300000Y-80300000D01*
X81290998Y-130250000D02*
X112250000Y-130250000D01*
X80910997Y-129869999D02*
X81290998Y-130250000D01*
X80089999Y-129869999D02*
X80910997Y-129869999D01*
X79240000Y-129020000D02*
X80089999Y-129869999D01*
X109830000Y-118900000D02*
X109800000Y-118870000D01*
X112250000Y-118900000D02*
X109830000Y-118900000D01*
X121450000Y-102500000D02*
X121460000Y-102510000D01*
X112250000Y-102500000D02*
X121450000Y-102500000D01*
X81280998Y-127700000D02*
X113150000Y-127700000D01*
X80089999Y-127329999D02*
X80910997Y-127329999D01*
X80910997Y-127329999D02*
X81280998Y-127700000D01*
X79240000Y-126480000D02*
X80089999Y-127329999D01*
X122340000Y-100850000D02*
X124000000Y-102510000D01*
X113150000Y-100850000D02*
X122340000Y-100850000D01*
X113120000Y-116330000D02*
X113150000Y-116300000D01*
X109800000Y-116330000D02*
X113120000Y-116330000D01*
X80910997Y-124789999D02*
X81370998Y-125250000D01*
X80089999Y-124789999D02*
X80910997Y-124789999D01*
X81370998Y-125250000D02*
X114400000Y-125250000D01*
X79240000Y-123940000D02*
X80089999Y-124789999D01*
X120710000Y-104300000D02*
X121460000Y-105050000D01*
X114450000Y-104300000D02*
X120710000Y-104300000D01*
X114390000Y-113790000D02*
X114400000Y-113800000D01*
X109800000Y-113790000D02*
X114390000Y-113790000D01*
X81260998Y-122600000D02*
X115500000Y-122600000D01*
X80060998Y-121400000D02*
X81260998Y-122600000D01*
X79240000Y-121400000D02*
X80060998Y-121400000D01*
X122811399Y-106238601D02*
X123136401Y-105913599D01*
X116525002Y-105100000D02*
X117663603Y-106238601D01*
X123136401Y-105913599D02*
X124000000Y-105050000D01*
X117663603Y-106238601D02*
X122811399Y-106238601D01*
X115550000Y-105100000D02*
X116525002Y-105100000D01*
X109800000Y-111250000D02*
X115500000Y-111250000D01*
X91760000Y-77710000D02*
X91750000Y-77700000D01*
X94850000Y-77710000D02*
X91760000Y-77710000D01*
X80570000Y-87050000D02*
X79240000Y-88380000D01*
X91650000Y-87050000D02*
X80570000Y-87050000D01*
X80089999Y-84990001D02*
X79240000Y-85840000D01*
X82174003Y-84664999D02*
X80415001Y-84664999D01*
X80415001Y-84664999D02*
X80089999Y-84990001D01*
X83439002Y-83400000D02*
X82174003Y-84664999D01*
X94850000Y-83400000D02*
X83439002Y-83400000D01*
X80440000Y-82100000D02*
X81260998Y-82100000D01*
X79240000Y-83300000D02*
X80440000Y-82100000D01*
X108300000Y-67600000D02*
X108350000Y-67550000D01*
X104950000Y-67600000D02*
X108300000Y-67600000D01*
X96400000Y-82100000D02*
X104950000Y-82100000D01*
X81260998Y-82100000D02*
X96400000Y-82100000D01*
X94530000Y-106200000D02*
X94560000Y-106170000D01*
X89750000Y-106200000D02*
X94530000Y-106200000D01*
X79240000Y-80760000D02*
X80415001Y-79584999D01*
X89724990Y-79124990D02*
X89750000Y-79150000D01*
X86364006Y-79124990D02*
X89724990Y-79124990D01*
X85903997Y-79584999D02*
X86364006Y-79124990D01*
X80415001Y-79584999D02*
X85903997Y-79584999D01*
X101551004Y-74000000D02*
X89750000Y-74000000D01*
X105730000Y-74000000D02*
X101551004Y-74000000D01*
X106900000Y-75170000D02*
X105730000Y-74000000D01*
X108350000Y-75170000D02*
X106900000Y-75170000D01*
X96410000Y-113790000D02*
X96450000Y-113750000D01*
X94560000Y-113790000D02*
X96410000Y-113790000D01*
X97150000Y-78900000D02*
X103850000Y-78900000D01*
X105040000Y-77710000D02*
X108350000Y-77710000D01*
X103850000Y-78900000D02*
X105040000Y-77710000D01*
X83294999Y-77044999D02*
X83300000Y-77050000D01*
X80415001Y-77044999D02*
X83294999Y-77044999D01*
X79240000Y-78220000D02*
X80415001Y-77044999D01*
X83300000Y-82725000D02*
X97150000Y-82725000D01*
X86460000Y-134040000D02*
X86450000Y-134050000D01*
X89550000Y-134040000D02*
X86460000Y-134040000D01*
X94540000Y-118850000D02*
X94560000Y-118870000D01*
X86450000Y-118850000D02*
X94540000Y-118850000D01*
X84984999Y-137815001D02*
X85000000Y-137800000D01*
X81235999Y-137815001D02*
X84984999Y-137815001D01*
X80089999Y-137489999D02*
X80910997Y-137489999D01*
X80910997Y-137489999D02*
X81235999Y-137815001D01*
X79240000Y-136640000D02*
X80089999Y-137489999D01*
X94520000Y-108750000D02*
X94560000Y-108710000D01*
X85050000Y-108750000D02*
X94520000Y-108750000D01*
X102180000Y-65010000D02*
X103570000Y-66400000D01*
X103570000Y-66400000D02*
X126550000Y-66400000D01*
X100730000Y-65010000D02*
X102180000Y-65010000D01*
X122750000Y-131700000D02*
X121460000Y-132990000D01*
X126550000Y-131700000D02*
X122750000Y-131700000D01*
X107608996Y-68800000D02*
X125850000Y-68800000D01*
X107033997Y-68225001D02*
X107608996Y-68800000D01*
X102855001Y-68225001D02*
X107033997Y-68225001D01*
X102180000Y-67550000D02*
X102855001Y-68225001D01*
X100730000Y-67550000D02*
X102180000Y-67550000D01*
X122323599Y-129586401D02*
X121460000Y-130450000D01*
X122648601Y-129261399D02*
X122323599Y-129586401D01*
X125364337Y-129261399D02*
X122648601Y-129261399D01*
X125425736Y-129200000D02*
X125364337Y-129261399D01*
X125850000Y-129200000D02*
X125425736Y-129200000D01*
X106900000Y-70090000D02*
X108350000Y-70090000D01*
X105774990Y-68964990D02*
X106900000Y-70090000D01*
X88755010Y-68964990D02*
X105774990Y-68964990D01*
X87630000Y-70090000D02*
X88755010Y-68964990D01*
X87230000Y-70090000D02*
X87630000Y-70090000D01*
X85520000Y-103630000D02*
X85500000Y-103650000D01*
X94560000Y-103630000D02*
X85520000Y-103630000D01*
M02*
